<svg width="85" height="85" viewBox="0 0 85 85" fill="none" xmlns="http://www.w3.org/2000/svg">
<circle cx="42.5" cy="42.5" r="42.5" fill="white"/>
<path d="M45.8564 71.5205L47.332 69.676L48.4387 57.502L38.2938 52.3373C35.7976 48.4005 35.7236 45.8652 36.6337 41.0857L30.9156 38.1344C29.8661 37.4403 29.5974 36.5951 29.44 34.6298L16.5282 28.9117C15.1666 28.1231 14.8591 27.3454 15.0526 25.4071L18.9261 17.1067L20.2173 16.7378L23.7219 17.8445L26.4887 16L31.469 18.5823L30.3622 20.9802L68.3597 38.1344L71.4954 41.8235L72.971 41.0857L75 43.4836L70.3887 46.9882L69.4664 52.3373L70.3887 54.3663L69.4664 55.1041L66.6996 53.9974L63.7483 58.6088L64.3017 62.2978L63.3794 76.1318L58.9526 79.2676L46.7786 73.5495L45.8564 71.5205Z" fill="#443D67" fill-opacity="0.5"/>
<path d="M37.7206 44.0369L44.9143 46.9882M44.9143 46.9882V53.0752M44.9143 46.9882C43.7434 48.8802 42.7158 49.5529 39.7496 49.5705M58.3794 41.8235V47.1726M48.7878 38.1344V43.4836M53.3992 39.979V45.3281M42.332 69.676L40.8564 71.5205L41.7786 73.5495L53.9526 79.2676L58.3794 76.1318L59.3017 62.2978L58.7483 58.6088L61.6996 53.9974L64.4664 55.1041L65.3887 54.3663L64.4664 52.3373L65.3887 46.9882L70 43.4836L67.971 41.0857L66.4954 41.8235L63.3597 38.1344L25.3622 20.9802L26.469 18.5823L21.4887 16L18.7219 17.8445L15.2173 16.7378L13.9261 17.1067L10.0526 25.4071C9.85905 27.3454 10.1666 28.1231 11.5282 28.9117L24.44 34.6298C24.5974 36.5951 24.8661 37.4403 25.9156 38.1344L31.6337 41.0857C30.7236 45.8652 30.7976 48.4005 33.2938 52.3373L43.4387 57.502L42.332 69.676Z" stroke="#443D67" stroke-width="3" stroke-linecap="round" stroke-linejoin="round"/>
</svg>
