<svg width="200" height="200" viewBox="0 0 200 200" fill="none" xmlns="http://www.w3.org/2000/svg">
<circle cx="100" cy="100" r="100" fill="white"/>
<path d="M99.5 191.941C150.586 191.941 192 150.527 192 99.4406C192 49.5262 152.465 8.84569 103 7.0056C98.8999 6.93679 97.3804 7.48831 96 9.44061V49.4406C96 51.3736 97.567 52.9406 99.5 52.9406C101.433 52.9406 103 51.3736 103 49.4406V13.9919C149.107 15.5726 186 53.4482 186 99.9406C186 147.437 147.496 185.941 100 185.941C52.5035 185.941 14 147.437 14 99.9406C14 76.4485 23.4194 55.1563 38.6874 39.635L38.9495 39.4406C39.5978 38.8053 40 37.9199 40 36.9406C40 35.0076 38.433 33.4406 36.5 33.4406C35 33.4406 34.1824 33.8702 33.5597 34.4406L33.5506 34.4506C32.7421 35.3483 31.7899 36.4056 30.9001 37.3887C16.047 53.799 7 75.5633 7 99.4406C7 150.527 48.4137 191.941 99.5 191.941Z" fill="#557B86"/>
<path d="M57.9344 131.318L57.9773 133.208C58.407 132.506 58.9441 131.98 59.5887 131.629C60.2332 131.278 60.9493 131.103 61.7371 131.103C63.5704 131.103 64.7342 131.855 65.2283 133.359C65.6437 132.635 66.1987 132.08 66.8934 131.694C67.588 131.3 68.3543 131.103 69.1922 131.103C71.6844 131.103 72.9555 132.463 73.0057 135.185V142.941H71.7166V135.281C71.7094 134.243 71.4839 133.473 71.0398 132.972C70.603 132.471 69.8868 132.22 68.8914 132.22C67.9676 132.234 67.187 132.535 66.5496 133.122C65.9122 133.702 65.5577 134.411 65.4861 135.249V142.941H64.1971V135.185C64.1899 134.189 63.9536 133.448 63.4881 132.961C63.0298 132.467 62.3208 132.22 61.3611 132.22C60.5519 132.22 59.8572 132.453 59.2771 132.918C58.6971 133.376 58.2674 134.06 57.9881 134.97V142.941H56.699V131.318H57.9344ZM78.8107 142.941H77.5217V131.318H78.8107V142.941ZM77.2961 127.955C77.2961 127.712 77.3749 127.508 77.5324 127.343C77.69 127.171 77.9048 127.085 78.177 127.085C78.4491 127.085 78.6639 127.171 78.8215 127.343C78.9862 127.508 79.0686 127.712 79.0686 127.955C79.0686 128.199 78.9862 128.403 78.8215 128.568C78.6639 128.732 78.4491 128.815 78.177 128.815C77.9048 128.815 77.69 128.732 77.5324 128.568C77.3749 128.403 77.2961 128.199 77.2961 127.955ZM84.6373 131.318L84.6803 133.305C85.1171 132.589 85.6614 132.044 86.3131 131.672C86.9648 131.293 87.6845 131.103 88.4723 131.103C89.7184 131.103 90.6458 131.454 91.2545 132.155C91.8632 132.857 92.1712 133.91 92.1783 135.314V142.941H90.9V135.303C90.8928 134.265 90.6708 133.491 90.234 132.983C89.8043 132.474 89.1132 132.22 88.1607 132.22C87.3658 132.22 86.6604 132.471 86.0445 132.972C85.4358 133.466 84.9846 134.136 84.691 134.981V142.941H83.4127V131.318H84.6373ZM104.085 141.469C103.312 142.593 102.076 143.155 100.379 143.155C99.14 143.155 98.1982 142.797 97.5537 142.081C96.9092 141.358 96.5798 140.291 96.5654 138.88V131.318H97.8438V138.719C97.8438 140.932 98.7389 142.038 100.529 142.038C102.391 142.038 103.569 141.268 104.063 139.729V131.318H105.353V142.941H104.106L104.085 141.469ZM111.802 128.342V131.318H114.208V132.37H111.802V140.115C111.802 140.76 111.917 141.24 112.146 141.555C112.382 141.87 112.773 142.028 113.317 142.028C113.532 142.028 113.879 141.992 114.359 141.92L114.413 142.973C114.076 143.095 113.618 143.155 113.038 143.155C112.157 143.155 111.516 142.901 111.115 142.393C110.714 141.877 110.513 141.122 110.513 140.126V132.37H108.375V131.318H110.513V128.342H111.802ZM122.473 143.155C121.485 143.155 120.59 142.912 119.788 142.425C118.993 141.938 118.374 141.261 117.929 140.395C117.485 139.521 117.263 138.543 117.263 137.462V137C117.263 135.883 117.478 134.877 117.908 133.982C118.345 133.086 118.95 132.385 119.723 131.876C120.497 131.361 121.335 131.103 122.237 131.103C123.648 131.103 124.765 131.586 125.589 132.553C126.419 133.513 126.835 134.827 126.835 136.495V137.215H118.542V137.462C118.542 138.78 118.918 139.879 119.67 140.76C120.429 141.634 121.381 142.07 122.527 142.07C123.215 142.07 123.82 141.945 124.343 141.695C124.873 141.444 125.352 141.043 125.782 140.491L126.588 141.104C125.642 142.472 124.271 143.155 122.473 143.155ZM122.237 132.198C121.27 132.198 120.454 132.553 119.788 133.262C119.129 133.971 118.728 134.923 118.585 136.119H125.556V135.98C125.521 134.862 125.202 133.953 124.6 133.251C123.999 132.549 123.211 132.198 122.237 132.198ZM137.399 139.987C137.399 139.349 137.141 138.837 136.625 138.45C136.117 138.064 135.347 137.763 134.316 137.548C133.284 137.326 132.482 137.075 131.909 136.796C131.344 136.51 130.921 136.162 130.642 135.754C130.37 135.346 130.234 134.852 130.234 134.272C130.234 133.355 130.617 132.599 131.383 132.005C132.149 131.404 133.13 131.103 134.326 131.103C135.623 131.103 136.661 131.425 137.442 132.07C138.229 132.707 138.623 133.541 138.623 134.572H137.334C137.334 133.892 137.048 133.326 136.475 132.875C135.909 132.424 135.193 132.198 134.326 132.198C133.481 132.198 132.801 132.388 132.285 132.768C131.777 133.14 131.523 133.627 131.523 134.229C131.523 134.809 131.734 135.26 132.156 135.582C132.586 135.897 133.363 136.187 134.488 136.452C135.619 136.717 136.464 137 137.023 137.301C137.588 137.602 138.007 137.963 138.279 138.386C138.552 138.808 138.688 139.32 138.688 139.922C138.688 140.903 138.29 141.687 137.495 142.275C136.708 142.862 135.676 143.155 134.402 143.155C133.048 143.155 131.949 142.83 131.104 142.178C130.266 141.519 129.847 140.688 129.847 139.686H131.136C131.186 140.438 131.501 141.025 132.081 141.447C132.668 141.863 133.442 142.07 134.402 142.07C135.297 142.07 136.02 141.874 136.571 141.48C137.123 141.086 137.399 140.588 137.399 139.987ZM57.4188 162.957C57.4188 161.84 57.6336 160.834 58.0633 159.939C58.5001 159.043 59.1124 158.349 59.9002 157.855C60.6951 157.353 61.5939 157.103 62.5965 157.103C64.1434 157.103 65.3966 157.647 66.3563 158.736C67.3159 159.817 67.7957 161.253 67.7957 163.043V163.312C67.7957 164.436 67.5773 165.449 67.1404 166.352C66.7107 167.247 66.102 167.938 65.3143 168.425C64.5265 168.912 63.6277 169.155 62.618 169.155C61.0783 169.155 59.825 168.615 58.8582 167.533C57.8986 166.445 57.4188 165.005 57.4188 163.215V162.957ZM58.7078 163.312C58.7078 164.701 59.0659 165.843 59.782 166.738C60.5053 167.626 61.4507 168.07 62.618 168.07C63.7781 168.07 64.7163 167.626 65.4324 166.738C66.1557 165.843 66.5174 164.665 66.5174 163.204V162.957C66.5174 162.069 66.3527 161.256 66.0232 160.519C65.6938 159.781 65.2319 159.212 64.6375 158.811C64.0431 158.403 63.3628 158.198 62.5965 158.198C61.4507 158.198 60.5161 158.65 59.7928 159.552C59.0695 160.447 58.7078 161.622 58.7078 163.075V163.312ZM76.9309 158.413C76.6587 158.363 76.3687 158.338 76.0607 158.338C75.2587 158.338 74.5783 158.564 74.0197 159.015C73.4683 159.459 73.0744 160.107 72.8381 160.959V168.941H71.5598V157.318H72.8166L72.8381 159.165C73.5184 157.79 74.6105 157.103 76.1145 157.103C76.4725 157.103 76.7554 157.149 76.9631 157.242L76.9309 158.413Z" fill="#557B86"/>
<path d="M87.6924 157.318L87.7354 159.208C88.165 158.506 88.7021 157.98 89.3467 157.629C89.9912 157.278 90.7074 157.103 91.4951 157.103C93.3285 157.103 94.4922 157.855 94.9863 159.359C95.4017 158.635 95.9567 158.08 96.6514 157.694C97.346 157.3 98.1123 157.103 98.9502 157.103C101.442 157.103 102.714 158.463 102.764 161.185V168.941H101.475V161.281C101.467 160.243 101.242 159.473 100.798 158.972C100.361 158.471 99.6449 158.22 98.6494 158.22C97.7256 158.234 96.945 158.535 96.3076 159.122C95.6702 159.702 95.3158 160.411 95.2441 161.249V168.941H93.9551V161.185C93.9479 160.189 93.7116 159.448 93.2461 158.961C92.7878 158.467 92.0788 158.22 91.1191 158.22C90.3099 158.22 89.6152 158.453 89.0352 158.918C88.4551 159.376 88.0254 160.06 87.7461 160.97V168.941H86.457V157.318H87.6924ZM106.42 162.957C106.42 161.84 106.635 160.834 107.065 159.939C107.502 159.043 108.114 158.349 108.902 157.855C109.697 157.353 110.595 157.103 111.598 157.103C113.145 157.103 114.398 157.647 115.358 158.736C116.317 159.817 116.797 161.253 116.797 163.043V163.312C116.797 164.436 116.579 165.449 116.142 166.352C115.712 167.247 115.104 167.938 114.316 168.425C113.528 168.912 112.629 169.155 111.62 169.155C110.08 169.155 108.827 168.615 107.86 167.533C106.9 166.445 106.42 165.005 106.42 163.215V162.957ZM107.709 163.312C107.709 164.701 108.067 165.843 108.784 166.738C109.507 167.626 110.452 168.07 111.62 168.07C112.78 168.07 113.718 167.626 114.434 166.738C115.157 165.843 115.519 164.665 115.519 163.204V162.957C115.519 162.069 115.354 161.256 115.025 160.519C114.695 159.781 114.233 159.212 113.639 158.811C113.045 158.403 112.364 158.198 111.598 158.198C110.452 158.198 109.518 158.65 108.794 159.552C108.071 160.447 107.709 161.622 107.709 163.075V163.312ZM125.932 158.413C125.66 158.363 125.37 158.338 125.062 158.338C124.26 158.338 123.58 158.564 123.021 159.015C122.47 159.459 122.076 160.107 121.84 160.959V168.941H120.561V157.318H121.818L121.84 159.165C122.52 157.79 123.612 157.103 125.116 157.103C125.474 157.103 125.757 157.149 125.965 157.242L125.932 158.413ZM133.36 169.155C132.371 169.155 131.476 168.912 130.674 168.425C129.879 167.938 129.26 167.261 128.816 166.395C128.372 165.521 128.15 164.543 128.15 163.462V163C128.15 161.883 128.364 160.877 128.794 159.982C129.231 159.086 129.836 158.385 130.61 157.876C131.383 157.361 132.221 157.103 133.123 157.103C134.534 157.103 135.651 157.586 136.475 158.553C137.306 159.513 137.721 160.827 137.721 162.495V163.215H129.428V163.462C129.428 164.78 129.804 165.879 130.556 166.76C131.315 167.634 132.267 168.07 133.413 168.07C134.101 168.07 134.706 167.945 135.229 167.695C135.759 167.444 136.238 167.043 136.668 166.491L137.474 167.104C136.529 168.472 135.157 169.155 133.36 169.155ZM133.123 158.198C132.156 158.198 131.34 158.553 130.674 159.262C130.015 159.971 129.614 160.923 129.471 162.119H136.443V161.98C136.407 160.862 136.088 159.953 135.487 159.251C134.885 158.549 134.097 158.198 133.123 158.198Z" fill="#8C1A22"/>
<path d="M53 79.9406C53 90.9863 61.9543 99.9406 73 99.9406C73.4324 99.9406 73.8616 99.9269 74.2871 99.8999L62.5 118.941H73.5L90.6386 89.3765C92.1454 86.5657 93 83.353 93 79.9406C93 68.8949 84.0457 59.9406 73 59.9406C61.9543 59.9406 53 68.8949 53 79.9406Z" fill="#557B86"/>
<circle cx="73" cy="80.9406" r="11" fill="white"/>
<ellipse cx="121" cy="90.9406" rx="21" ry="30" fill="#557B86"/>
<path d="M120.5 70.9406C114.701 70.9406 110 75.8655 110 81.9406V100.941C110 107.016 114.701 111.941 120.5 111.941C126.299 111.941 131 107.016 131 100.941V81.9406C131 75.8655 126.299 70.9406 120.5 70.9406Z" fill="white"/>
</svg>
