<svg width="200" height="200" viewBox="0 0 200 200" fill="none" xmlns="http://www.w3.org/2000/svg">
<circle cx="100" cy="100" r="100" fill="white"/>
<path d="M99.5 192.941C150.586 192.941 192 151.527 192 100.441C192 50.5262 152.465 9.84569 103 8.0056C98.8999 7.93679 97.3804 8.48831 96 10.4406V50.4406C96 52.3736 97.567 53.9406 99.5 53.9406C101.433 53.9406 103 52.3736 103 50.4406V14.9919C149.107 16.5726 186 54.4482 186 100.941C186 148.437 147.496 186.941 100 186.941C52.5035 186.941 14 148.437 14 100.941C14 77.4485 23.4194 56.1563 38.6874 40.635L38.9495 40.4406C39.5978 39.8053 40 38.9199 40 37.9406C40 36.0076 38.433 34.4406 36.5 34.4406C35 34.4406 34.1824 34.8702 33.5597 35.4406L33.5506 35.4506C32.7421 36.3483 31.7899 37.4056 30.9001 38.3887C16.047 54.799 7 76.5633 7 100.441C7 151.527 48.4137 192.941 99.5 192.941Z" fill="#557B86"/>
<path d="M57.9344 132.318L57.9773 134.208C58.407 133.506 58.9441 132.98 59.5887 132.629C60.2332 132.278 60.9493 132.103 61.7371 132.103C63.5704 132.103 64.7342 132.855 65.2283 134.359C65.6437 133.635 66.1987 133.08 66.8934 132.694C67.588 132.3 68.3543 132.103 69.1922 132.103C71.6844 132.103 72.9555 133.463 73.0057 136.185V143.941H71.7166V136.281C71.7094 135.243 71.4839 134.473 71.0398 133.972C70.603 133.471 69.8868 133.22 68.8914 133.22C67.9676 133.234 67.187 133.535 66.5496 134.122C65.9122 134.702 65.5577 135.411 65.4861 136.249V143.941H64.1971V136.185C64.1899 135.189 63.9536 134.448 63.4881 133.961C63.0298 133.467 62.3208 133.22 61.3611 133.22C60.5519 133.22 59.8572 133.453 59.2771 133.918C58.6971 134.376 58.2674 135.06 57.9881 135.97V143.941H56.699V132.318H57.9344ZM78.8107 143.941H77.5217V132.318H78.8107V143.941ZM77.2961 128.955C77.2961 128.712 77.3749 128.508 77.5324 128.343C77.69 128.171 77.9048 128.085 78.177 128.085C78.4491 128.085 78.6639 128.171 78.8215 128.343C78.9862 128.508 79.0686 128.712 79.0686 128.955C79.0686 129.199 78.9862 129.403 78.8215 129.568C78.6639 129.732 78.4491 129.815 78.177 129.815C77.9048 129.815 77.69 129.732 77.5324 129.568C77.3749 129.403 77.2961 129.199 77.2961 128.955ZM84.6373 132.318L84.6803 134.305C85.1171 133.589 85.6614 133.044 86.3131 132.672C86.9648 132.292 87.6845 132.103 88.4723 132.103C89.7184 132.103 90.6458 132.454 91.2545 133.155C91.8632 133.857 92.1712 134.91 92.1783 136.314V143.941H90.9V136.303C90.8928 135.264 90.6708 134.491 90.234 133.983C89.8043 133.474 89.1132 133.22 88.1607 133.22C87.3658 133.22 86.6604 133.471 86.0445 133.972C85.4358 134.466 84.9846 135.136 84.691 135.981V143.941H83.4127V132.318H84.6373ZM104.085 142.469C103.312 143.593 102.076 144.155 100.379 144.155C99.14 144.155 98.1982 143.797 97.5537 143.081C96.9092 142.358 96.5798 141.291 96.5654 139.88V132.318H97.8438V139.719C97.8438 141.932 98.7389 143.038 100.529 143.038C102.391 143.038 103.569 142.268 104.063 140.729V132.318H105.353V143.941H104.106L104.085 142.469ZM111.802 129.342V132.318H114.208V133.37H111.802V141.115C111.802 141.76 111.917 142.24 112.146 142.555C112.382 142.87 112.773 143.028 113.317 143.028C113.532 143.028 113.879 142.992 114.359 142.92L114.413 143.973C114.076 144.095 113.618 144.155 113.038 144.155C112.157 144.155 111.516 143.901 111.115 143.393C110.714 142.877 110.513 142.122 110.513 141.126V133.37H108.375V132.318H110.513V129.342H111.802ZM122.473 144.155C121.485 144.155 120.59 143.912 119.788 143.425C118.993 142.938 118.374 142.261 117.929 141.395C117.485 140.521 117.263 139.543 117.263 138.462V138C117.263 136.883 117.478 135.877 117.908 134.982C118.345 134.086 118.95 133.385 119.723 132.876C120.497 132.361 121.335 132.103 122.237 132.103C123.648 132.103 124.765 132.586 125.589 133.553C126.419 134.513 126.835 135.827 126.835 137.495V138.215H118.542V138.462C118.542 139.78 118.918 140.879 119.67 141.76C120.429 142.634 121.381 143.07 122.527 143.07C123.215 143.07 123.82 142.945 124.343 142.695C124.873 142.444 125.352 142.043 125.782 141.491L126.588 142.104C125.642 143.472 124.271 144.155 122.473 144.155ZM122.237 133.198C121.27 133.198 120.454 133.553 119.788 134.262C119.129 134.971 118.728 135.923 118.585 137.119H125.556V136.98C125.521 135.862 125.202 134.953 124.6 134.251C123.999 133.549 123.211 133.198 122.237 133.198ZM137.399 140.987C137.399 140.349 137.141 139.837 136.625 139.45C136.117 139.064 135.347 138.763 134.316 138.548C133.284 138.326 132.482 138.075 131.909 137.796C131.344 137.51 130.921 137.162 130.642 136.754C130.37 136.346 130.234 135.852 130.234 135.272C130.234 134.355 130.617 133.599 131.383 133.005C132.149 132.403 133.13 132.103 134.326 132.103C135.623 132.103 136.661 132.425 137.442 133.07C138.229 133.707 138.623 134.541 138.623 135.572H137.334C137.334 134.892 137.048 134.326 136.475 133.875C135.909 133.424 135.193 133.198 134.326 133.198C133.481 133.198 132.801 133.388 132.285 133.768C131.777 134.14 131.523 134.627 131.523 135.229C131.523 135.809 131.734 136.26 132.156 136.582C132.586 136.897 133.363 137.187 134.488 137.452C135.619 137.717 136.464 138 137.023 138.301C137.588 138.602 138.007 138.963 138.279 139.386C138.552 139.808 138.688 140.32 138.688 140.922C138.688 141.903 138.29 142.687 137.495 143.275C136.708 143.862 135.676 144.155 134.402 144.155C133.048 144.155 131.949 143.83 131.104 143.178C130.266 142.519 129.847 141.688 129.847 140.686H131.136C131.186 141.438 131.501 142.025 132.081 142.447C132.668 142.863 133.442 143.07 134.402 143.07C135.297 143.07 136.02 142.874 136.571 142.48C137.123 142.086 137.399 141.588 137.399 140.987ZM63.3162 163.957C63.3162 162.84 63.5311 161.834 63.9607 160.939C64.3976 160.043 65.0099 159.349 65.7977 158.855C66.5926 158.353 67.4913 158.103 68.4939 158.103C70.0408 158.103 71.2941 158.647 72.2537 159.736C73.2133 160.817 73.6932 162.253 73.6932 164.043V164.312C73.6932 165.436 73.4747 166.449 73.0379 167.352C72.6082 168.247 71.9995 168.938 71.2117 169.425C70.424 169.912 69.5252 170.155 68.5154 170.155C66.9757 170.155 65.7225 169.615 64.7557 168.533C63.796 167.445 63.3162 166.005 63.3162 164.215V163.957ZM64.6053 164.312C64.6053 165.701 64.9633 166.843 65.6795 167.738C66.4028 168.626 67.3481 169.07 68.5154 169.07C69.6756 169.07 70.6137 168.626 71.3299 167.738C72.0532 166.843 72.4148 165.665 72.4148 164.204V163.957C72.4148 163.069 72.2501 162.256 71.9207 161.519C71.5913 160.781 71.1294 160.212 70.535 159.811C69.9406 159.403 69.2602 159.198 68.4939 159.198C67.3481 159.198 66.4135 159.65 65.6902 160.552C64.9669 161.447 64.6053 162.622 64.6053 164.075V164.312ZM82.8283 159.413C82.5562 159.363 82.2661 159.338 81.9582 159.338C81.1561 159.338 80.4758 159.564 79.9172 160.015C79.3658 160.459 78.9719 161.107 78.7355 161.959V169.941H77.4572V158.318H78.7141L78.7355 160.165C79.4159 158.79 80.508 158.103 82.0119 158.103C82.37 158.103 82.6529 158.149 82.8605 158.242L82.8283 159.413Z" fill="#557B86"/>
<path d="M93.8584 169.941H92.5693V153.441H93.8584V169.941ZM102.961 170.155C101.973 170.155 101.078 169.912 100.276 169.425C99.4809 168.938 98.8614 168.261 98.4174 167.395C97.9734 166.521 97.7514 165.543 97.7514 164.462V164C97.7514 162.883 97.9662 161.877 98.3959 160.982C98.8327 160.086 99.4379 159.385 100.211 158.876C100.985 158.361 101.823 158.103 102.725 158.103C104.136 158.103 105.253 158.586 106.077 159.553C106.907 160.513 107.323 161.827 107.323 163.495V164.215H99.0297V164.462C99.0297 165.78 99.4057 166.879 100.158 167.76C100.917 168.634 101.869 169.07 103.015 169.07C103.703 169.07 104.308 168.945 104.83 168.695C105.36 168.444 105.84 168.043 106.27 167.491L107.076 168.104C106.13 169.472 104.759 170.155 102.961 170.155ZM102.725 159.198C101.758 159.198 100.942 159.553 100.276 160.262C99.6169 160.971 99.2159 161.923 99.0727 163.119H106.044V162.98C106.009 161.862 105.69 160.953 105.088 160.251C104.487 159.549 103.699 159.198 102.725 159.198ZM117.887 166.987C117.887 166.349 117.629 165.837 117.113 165.45C116.605 165.064 115.835 164.763 114.804 164.548C113.772 164.326 112.97 164.075 112.397 163.796C111.832 163.51 111.409 163.162 111.13 162.754C110.858 162.346 110.721 161.852 110.721 161.272C110.721 160.355 111.105 159.599 111.871 159.005C112.637 158.403 113.618 158.103 114.814 158.103C116.11 158.103 117.149 158.425 117.929 159.07C118.717 159.707 119.111 160.541 119.111 161.572H117.822C117.822 160.892 117.536 160.326 116.963 159.875C116.397 159.424 115.681 159.198 114.814 159.198C113.969 159.198 113.289 159.388 112.773 159.768C112.265 160.14 112.011 160.627 112.011 161.229C112.011 161.809 112.222 162.26 112.644 162.582C113.074 162.897 113.851 163.187 114.975 163.452C116.107 163.717 116.952 164 117.511 164.301C118.076 164.602 118.495 164.963 118.767 165.386C119.04 165.808 119.176 166.32 119.176 166.922C119.176 167.903 118.778 168.687 117.983 169.275C117.195 169.862 116.164 170.155 114.889 170.155C113.536 170.155 112.437 169.83 111.592 169.178C110.754 168.519 110.335 167.688 110.335 166.686H111.624C111.674 167.438 111.989 168.025 112.569 168.447C113.156 168.863 113.93 169.07 114.889 169.07C115.785 169.07 116.508 168.874 117.059 168.48C117.611 168.086 117.887 167.588 117.887 166.987ZM130.137 166.987C130.137 166.349 129.879 165.837 129.363 165.45C128.855 165.064 128.085 164.763 127.054 164.548C126.023 164.326 125.221 164.075 124.648 163.796C124.082 163.51 123.659 163.162 123.38 162.754C123.108 162.346 122.972 161.852 122.972 161.272C122.972 160.355 123.355 159.599 124.121 159.005C124.888 158.403 125.869 158.103 127.065 158.103C128.361 158.103 129.399 158.425 130.18 159.07C130.968 159.707 131.362 160.541 131.362 161.572H130.072C130.072 160.892 129.786 160.326 129.213 159.875C128.647 159.424 127.931 159.198 127.065 159.198C126.22 159.198 125.539 159.388 125.024 159.768C124.515 160.14 124.261 160.627 124.261 161.229C124.261 161.809 124.472 162.26 124.895 162.582C125.324 162.897 126.101 163.187 127.226 163.452C128.357 163.717 129.202 164 129.761 164.301C130.327 164.602 130.746 164.963 131.018 165.386C131.29 165.808 131.426 166.32 131.426 166.922C131.426 167.903 131.029 168.687 130.234 169.275C129.446 169.862 128.415 170.155 127.14 170.155C125.786 170.155 124.687 169.83 123.842 169.178C123.004 168.519 122.585 167.688 122.585 166.686H123.874C123.924 167.438 124.239 168.025 124.82 168.447C125.407 168.863 126.18 169.07 127.14 169.07C128.035 169.07 128.758 168.874 129.31 168.48C129.861 168.086 130.137 167.588 130.137 166.987Z" fill="#8C1A22"/>
<path d="M53 80.9406C53 91.9863 61.9543 100.941 73 100.941C73.4324 100.941 73.8616 100.927 74.2871 100.9L62.5 119.941H73.5L90.6386 90.3765C92.1454 87.5657 93 84.3529 93 80.9406C93 69.8949 84.0457 60.9406 73 60.9406C61.9543 60.9406 53 69.8949 53 80.9406Z" fill="#557B86"/>
<circle cx="73" cy="81.9406" r="11" fill="white"/>
<ellipse cx="121" cy="91.9406" rx="21" ry="30" fill="#557B86"/>
<path d="M120.5 71.9406C114.701 71.9406 110 76.8655 110 82.9406V101.941C110 108.016 114.701 112.941 120.5 112.941C126.299 112.941 131 108.016 131 101.941V82.9406C131 76.8655 126.299 71.9406 120.5 71.9406Z" fill="white"/>
</svg>
