<svg width="60" height="60" viewBox="0 0 60 60" fill="none" xmlns="http://www.w3.org/2000/svg">
<rect width="60" height="60" rx="30" fill="white"/>
<path d="M27.1153 10.3846L4.03841 29.4231C2.87036 30.9072 5.50398 33.5932 6.92302 33.4615L30 14.4231C30 14.4231 51.3461 32.8846 52.4999 33.4615C53.6538 34.0385 56.5384 30 55.9615 29.4231C55.3846 28.8462 49.0384 23.6539 49.0384 23.6539C49.0384 23.6539 49.1228 11.1707 49.0384 10.3846C48.954 9.59856 47.8846 9.23077 47.8846 9.23077H41.5384C40.7734 9.48564 40.6015 9.78826 40.3846 10.3846V16.1539L33.4615 10.3846C30.9972 9.05939 29.5808 9.0359 27.1153 10.3846Z" fill="#557B86"/>
<path d="M10.9614 32.8846L30 17.3077L49.0384 32.8846V49.0385L47.3075 51.3462H34.0383V38.6539H25.9614V51.3462H12.6921L10.9614 49.6154V32.8846Z" fill="#557B86"/>
</svg>
