<svg width="248" height="74" viewBox="0 0 248 74" fill="none" xmlns="http://www.w3.org/2000/svg">
<path d="M99.736 49.144H98.824C98.824 47.64 99.272 44.76 100.168 40.504C101.096 36.248 101.56 33.832 101.56 33.256C101.56 32.2 101.112 31.08 100.216 29.896L99.784 29.32L99.832 28.696C101.56 28.216 104.328 27.976 108.136 27.976C108.584 28.584 108.808 29.576 108.808 30.952C111.688 28.808 113.976 27.736 115.672 27.736C117.816 27.736 119.08 28.84 119.464 31.048C120.328 30.344 121.448 29.624 122.824 28.888C124.232 28.12 125.48 27.736 126.568 27.736C127.688 27.736 128.616 28.104 129.352 28.84C130.088 29.544 130.456 30.536 130.456 31.816C130.456 33.096 130.104 35.208 129.4 38.152C128.696 41.096 128.344 43.08 128.344 44.104C128.344 45.096 128.488 45.592 128.776 45.592C128.968 45.592 129.624 45.288 130.744 44.68L131.272 44.392L132.136 46.072C131.304 46.904 130.168 47.704 128.728 48.472C127.32 49.208 126.072 49.576 124.984 49.576C122.584 49.576 121.384 48.216 121.384 45.496C121.384 44.504 121.72 42.52 122.392 39.544C123.096 36.536 123.448 34.584 123.448 33.688C123.448 32.76 123.176 32.296 122.632 32.296C121.704 32.296 120.648 32.648 119.464 33.352C119.4 33.992 118.952 36.168 118.12 39.88C117.32 43.592 116.92 46.472 116.92 48.52C115.992 48.936 113.816 49.144 110.392 49.144C110.328 48.792 110.296 47.944 110.296 46.6C110.296 45.256 110.664 42.968 111.4 39.736C112.168 36.504 112.552 34.456 112.552 33.592C112.552 32.728 112.248 32.296 111.64 32.296C110.68 32.296 109.624 32.68 108.472 33.448C108.408 33.736 108.088 35.144 107.512 37.672C106.36 42.728 105.784 46.328 105.784 48.472C104.664 48.92 102.648 49.144 99.736 49.144Z" fill="#443D67"/>
<path d="M140.41 49.576C138.202 49.576 136.474 48.808 135.226 47.272C133.978 45.704 133.354 43.528 133.354 40.744C133.354 37.192 134.298 34.136 136.186 31.576C138.106 29.016 140.746 27.736 144.106 27.736L145.834 27.832C146.378 27.544 146.986 27.4 147.658 27.4C150.186 27.4 151.45 29.784 151.45 34.552C152.762 34.488 154.09 34.312 155.434 34.024L156.202 33.832L156.49 35.704C155.434 36.152 154.01 36.552 152.218 36.904L151.258 37.096C150.65 40.456 149.418 43.384 147.562 45.88C145.706 48.344 143.322 49.576 140.41 49.576ZM143.002 45.448C144.346 45.448 145.546 44.584 146.602 42.856C147.69 41.128 148.442 39.304 148.858 37.384C145.434 37.384 143.722 36.104 143.722 33.544C143.722 32.52 143.93 31.56 144.346 30.664L144.586 30.184C144.458 30.12 144.298 30.088 144.106 30.088C143.914 30.088 143.77 30.12 143.674 30.184C142.874 30.696 142.122 31.896 141.418 33.784C140.714 35.672 140.362 37.832 140.362 40.264C140.362 43.72 141.242 45.448 143.002 45.448Z" fill="#443D67"/>
<path d="M160.519 49.576C158.311 49.576 156.583 48.808 155.335 47.272C154.087 45.704 153.463 43.528 153.463 40.744C153.463 37.192 154.407 34.136 156.295 31.576C158.215 29.016 160.855 27.736 164.215 27.736L165.943 27.832C166.487 27.544 167.095 27.4 167.767 27.4C170.295 27.4 171.559 29.784 171.559 34.552C172.871 34.488 174.199 34.312 175.543 34.024L176.311 33.832L176.599 35.704C175.543 36.152 174.119 36.552 172.327 36.904L171.367 37.096C170.759 40.456 169.527 43.384 167.671 45.88C165.815 48.344 163.431 49.576 160.519 49.576ZM163.111 45.448C164.455 45.448 165.655 44.584 166.711 42.856C167.799 41.128 168.551 39.304 168.967 37.384C165.543 37.384 163.831 36.104 163.831 33.544C163.831 32.52 164.039 31.56 164.455 30.664L164.695 30.184C164.567 30.12 164.407 30.088 164.215 30.088C164.023 30.088 163.879 30.12 163.783 30.184C162.983 30.696 162.231 31.896 161.527 33.784C160.823 35.672 160.471 37.832 160.471 40.264C160.471 43.72 161.351 45.448 163.111 45.448Z" fill="#443D67"/>
<path d="M196.192 46.072C193.472 48.408 191.072 49.576 188.992 49.576C186.944 49.576 185.76 48.552 185.44 46.504C184.48 47.464 183.408 48.216 182.224 48.76C181.04 49.304 180 49.576 179.104 49.576C177.568 49.576 176.256 48.904 175.168 47.56C174.08 46.216 173.536 44.136 173.536 41.32C173.536 37.096 174.432 33.784 176.224 31.384C178.016 28.952 180.032 27.736 182.272 27.736C184.544 27.736 186.448 28.248 187.984 29.272C188.976 24.088 189.472 20.008 189.472 17.032L189.232 15.016C191.632 14.184 193.984 13.768 196.288 13.768C196.544 14.312 196.672 14.936 196.672 15.64C196.672 17.976 195.968 22.728 194.56 29.896C193.152 37.032 192.448 41.88 192.448 44.44C192.448 45.208 192.624 45.592 192.976 45.592C193.168 45.592 193.776 45.288 194.8 44.68L195.28 44.392L196.192 46.072ZM184.624 30.568C183.504 30.568 182.528 31.672 181.696 33.88C180.896 36.088 180.496 38.28 180.496 40.456C180.496 42.6 180.64 43.976 180.928 44.584C181.248 45.192 181.712 45.496 182.32 45.496C183.376 45.496 184.416 45.064 185.44 44.2C185.536 42.92 186.256 38.664 187.6 31.432C186.512 30.856 185.52 30.568 184.624 30.568Z" fill="#443D67"/>
<path d="M202.19 27.736C203.598 27.736 204.638 28.024 205.31 28.6C206.014 29.176 206.366 30.36 206.366 32.152C206.366 33.112 206.078 35.08 205.502 38.056C204.926 41 204.638 42.792 204.638 43.432C204.638 44.712 204.894 45.352 205.406 45.352C206.622 45.352 207.95 44.456 209.39 42.664C210.862 40.84 211.63 39.32 211.694 38.104L208.43 34.456C208.558 33.08 208.894 31.832 209.438 30.712C209.982 29.592 210.494 28.808 210.974 28.36L211.646 27.736C213.022 27.736 214.062 28.104 214.766 28.84C215.47 29.576 215.822 30.44 215.822 31.432C215.822 33.96 215.198 36.632 213.95 39.448C212.702 42.264 211.038 44.664 208.958 46.648C206.878 48.6 204.766 49.576 202.622 49.576C201.278 49.576 200.238 49.16 199.502 48.328C198.798 47.496 198.446 46.408 198.446 45.064C198.446 43.688 198.542 41.848 198.734 39.544C198.958 37.24 199.07 34.952 199.07 32.68C199.07 32.168 198.878 31.56 198.494 30.856C198.142 30.152 197.774 29.592 197.39 29.176L197.534 28.6C199.262 28.024 200.814 27.736 202.19 27.736Z" fill="#443D67"/>
<path d="M226.36 30.712C226.36 32.056 225.928 34.376 225.064 37.672C224.2 40.936 223.768 43.08 223.768 44.104C223.768 45.096 223.912 45.592 224.2 45.592C224.392 45.592 225.128 45.288 226.408 44.68L226.984 44.392L227.8 46.072C227.512 46.328 227.128 46.648 226.648 47.032C226.168 47.416 225.272 47.944 223.96 48.616C222.648 49.256 221.432 49.576 220.312 49.576C219.192 49.576 218.312 49.24 217.672 48.568C217.032 47.864 216.712 46.936 216.712 45.784C216.712 44.6 217.112 42.52 217.912 39.544C218.712 36.536 219.112 34.584 219.112 33.688C219.112 32.344 218.696 31.08 217.864 29.896L217.432 29.32L217.48 28.696C219.176 28.216 221.928 27.976 225.736 27.976C226.152 28.456 226.36 29.368 226.36 30.712ZM220.888 22.744C220.248 22.104 219.928 21.256 219.928 20.2C219.928 19.144 220.36 18.216 221.224 17.416C222.12 16.616 223.144 16.216 224.296 16.216C225.448 16.216 226.344 16.536 226.984 17.176C227.624 17.816 227.944 18.664 227.944 19.72C227.944 20.744 227.48 21.656 226.552 22.456C225.656 23.256 224.648 23.656 223.528 23.656C222.408 23.656 221.528 23.352 220.888 22.744Z" fill="#443D67"/>
<path d="M229.31 40.696C229.31 36.696 230.51 33.544 232.91 31.24C235.342 28.904 238.094 27.736 241.166 27.736C243.054 27.736 244.606 28.2 245.822 29.128C247.038 30.056 247.646 31.304 247.646 32.872C247.646 34.408 247.246 35.704 246.446 36.76C245.678 37.816 244.734 38.632 243.614 39.208C241.342 40.328 239.262 41.032 237.374 41.32L236.222 41.464C236.446 44.472 237.678 45.976 239.918 45.976C240.686 45.976 241.502 45.784 242.366 45.4C243.23 45.016 243.902 44.632 244.382 44.248L245.102 43.672L246.254 45.208C245.998 45.56 245.486 46.024 244.718 46.6C243.95 47.176 243.23 47.656 242.558 48.04C240.702 49.064 238.67 49.576 236.462 49.576C234.254 49.576 232.51 48.792 231.23 47.224C229.95 45.656 229.31 43.48 229.31 40.696ZM236.174 39.112C237.806 38.824 239.102 38.136 240.062 37.048C241.022 35.96 241.502 34.552 241.502 32.824C241.502 31.096 240.99 30.232 239.966 30.232C238.75 30.232 237.806 31.272 237.134 33.352C236.494 35.4 236.174 37.32 236.174 39.112Z" fill="#443D67"/>
<path d="M13.3721 32.4019L1 49H3.82791L6.65581 45.4112L9.48372 49H67.8093L70.6372 45.4112L73.8186 49H77L38.1163 1L23.2698 20.2897V7.28037H13.3721V32.4019Z" fill="#557B86" stroke="#557B86"/>
<rect x="0.618923" width="4.65394" height="5.46165" transform="matrix(0.618923 -0.785451 0.618923 0.785451 60.6219 40.469)" fill="white" stroke="#557B86"/>
<rect x="0.618923" width="4.65394" height="5.46165" transform="matrix(0.618923 -0.785451 0.618923 0.785451 54.2591 32.3943)" fill="white" stroke="#557B86"/>
<rect x="0.618923" width="4.65394" height="5.46165" transform="matrix(0.618923 -0.785451 0.618923 0.785451 47.8963 24.3195)" fill="white" stroke="#557B86"/>
<rect x="0.618923" width="4.65394" height="5.46165" transform="matrix(0.618923 -0.785451 0.618923 0.785451 41.5335 16.2447)" fill="white" stroke="#557B86"/>
<rect x="0.618923" width="4.65394" height="5.46165" transform="matrix(0.618923 -0.785451 0.618923 0.785451 35.1707 8.16997)" fill="white" stroke="#557B86"/>
<path d="M33.8744 43.1682V33.7477C36.1756 27.5333 42.6156 29.1688 43.7721 33.7477V43.1682H33.8744Z" fill="white" stroke="#557B86"/>
<path d="M38.8232 29.7103V43.1682" stroke="#557B86"/>
<path d="M43.7721 35.9906H33.8744" stroke="#557B86"/>
<path d="M53.602 66.136C53.602 65.352 53.7607 64.666 54.078 64.078C54.3953 63.4807 54.8293 63.0187 55.38 62.692C55.94 62.3654 56.5607 62.202 57.242 62.202C57.914 62.202 58.4973 62.3467 58.992 62.636C59.4867 62.9254 59.8553 63.2894 60.098 63.728V62.328H61.386V70H60.098V68.572C59.846 69.02 59.468 69.3934 58.964 69.692C58.4693 69.9814 57.8907 70.126 57.228 70.126C56.5467 70.126 55.9307 69.958 55.38 69.622C54.8293 69.286 54.3953 68.8147 54.078 68.208C53.7607 67.6014 53.602 66.9107 53.602 66.136ZM60.098 66.15C60.098 65.5714 59.9813 65.0674 59.748 64.638C59.5147 64.2087 59.1973 63.882 58.796 63.658C58.404 63.4247 57.97 63.308 57.494 63.308C57.018 63.308 56.584 63.42 56.192 63.644C55.8 63.868 55.4873 64.1947 55.254 64.624C55.0207 65.0533 54.904 65.5574 54.904 66.136C54.904 66.724 55.0207 67.2374 55.254 67.676C55.4873 68.1054 55.8 68.4367 56.192 68.67C56.584 68.894 57.018 69.006 57.494 69.006C57.97 69.006 58.404 68.894 58.796 68.67C59.1973 68.4367 59.5147 68.1054 59.748 67.676C59.9813 67.2374 60.098 66.7287 60.098 66.15Z" fill="#443D67"/>
<path d="M76.4974 62.188C77.0947 62.188 77.6267 62.314 78.0933 62.566C78.56 62.8087 78.9287 63.1774 79.1994 63.672C79.47 64.1667 79.6054 64.7687 79.6054 65.478V70H78.3454V65.66C78.3454 64.8947 78.154 64.3114 77.7714 63.91C77.398 63.4994 76.8893 63.294 76.2453 63.294C75.5827 63.294 75.0554 63.5087 74.6634 63.938C74.2714 64.358 74.0753 64.9693 74.0753 65.772V70H72.8153V65.66C72.8153 64.8947 72.624 64.3114 72.2414 63.91C71.868 63.4994 71.3593 63.294 70.7153 63.294C70.0527 63.294 69.5253 63.5087 69.1333 63.938C68.7413 64.358 68.5453 64.9693 68.5453 65.772V70H67.2713V62.328H68.5453V63.434C68.7973 63.0327 69.1333 62.7247 69.5533 62.51C69.9827 62.2954 70.454 62.188 70.9674 62.188C71.6114 62.188 72.1807 62.3327 72.6754 62.622C73.17 62.9114 73.5387 63.336 73.7814 63.896C73.996 63.3547 74.3507 62.9347 74.8454 62.636C75.34 62.3374 75.8907 62.188 76.4974 62.188Z" fill="#443D67"/>
<path d="M85.0412 70.126C84.3225 70.126 83.6692 69.9627 83.0812 69.636C82.5025 69.3094 82.0452 68.8474 81.7092 68.25C81.3825 67.6434 81.2192 66.9434 81.2192 66.15C81.2192 65.366 81.3872 64.6754 81.7232 64.078C82.0685 63.4714 82.5352 63.0094 83.1232 62.692C83.7112 62.3654 84.3692 62.202 85.0972 62.202C85.8252 62.202 86.4832 62.3654 87.0712 62.692C87.6592 63.0094 88.1212 63.4667 88.4572 64.064C88.8025 64.6613 88.9752 65.3567 88.9752 66.15C88.9752 66.9434 88.7978 67.6434 88.4432 68.25C88.0978 68.8474 87.6265 69.3094 87.0292 69.636C86.4318 69.9627 85.7692 70.126 85.0412 70.126ZM85.0412 69.006C85.4985 69.006 85.9278 68.8987 86.3292 68.684C86.7305 68.4694 87.0525 68.1474 87.2952 67.718C87.5472 67.2887 87.6732 66.766 87.6732 66.15C87.6732 65.534 87.5518 65.0114 87.3092 64.582C87.0665 64.1527 86.7492 63.8354 86.3572 63.63C85.9652 63.4154 85.5405 63.308 85.0832 63.308C84.6165 63.308 84.1872 63.4154 83.7952 63.63C83.4125 63.8354 83.1045 64.1527 82.8712 64.582C82.6378 65.0114 82.5212 65.534 82.5212 66.15C82.5212 66.7754 82.6332 67.3027 82.8572 67.732C83.0905 68.1614 83.3985 68.4834 83.7812 68.698C84.1638 68.9034 84.5838 69.006 85.0412 69.006Z" fill="#443D67"/>
<path d="M93.5063 68.824L95.8863 62.328H97.2443L94.2343 70H92.7503L89.7403 62.328H91.1123L93.5063 68.824Z" fill="#443D67"/>
<path d="M99.1559 61.082C98.9132 61.082 98.7079 60.998 98.5399 60.83C98.3719 60.662 98.2879 60.4567 98.2879 60.214C98.2879 59.9714 98.3719 59.766 98.5399 59.598C98.7079 59.43 98.9132 59.346 99.1559 59.346C99.3892 59.346 99.5852 59.43 99.7439 59.598C99.9119 59.766 99.9959 59.9714 99.9959 60.214C99.9959 60.4567 99.9119 60.662 99.7439 60.83C99.5852 60.998 99.3892 61.082 99.1559 61.082ZM99.7719 62.328V70H98.4979V62.328H99.7719Z" fill="#443D67"/>
<path d="M108.943 65.87C108.943 66.1127 108.929 66.3693 108.901 66.64H102.769C102.816 67.396 103.073 67.9887 103.539 68.418C104.015 68.838 104.589 69.048 105.261 69.048C105.812 69.048 106.269 68.922 106.633 68.67C107.007 68.4087 107.268 68.0634 107.417 67.634H108.789C108.584 68.3714 108.173 68.9734 107.557 69.44C106.941 69.8974 106.176 70.126 105.261 70.126C104.533 70.126 103.88 69.9627 103.301 69.636C102.732 69.3094 102.284 68.8474 101.957 68.25C101.631 67.6434 101.467 66.9434 101.467 66.15C101.467 65.3567 101.626 64.6613 101.943 64.064C102.261 63.4667 102.704 63.0094 103.273 62.692C103.852 62.3654 104.515 62.202 105.261 62.202C105.989 62.202 106.633 62.3607 107.193 62.678C107.753 62.9954 108.183 63.434 108.481 63.994C108.789 64.5447 108.943 65.17 108.943 65.87ZM107.627 65.604C107.627 65.1187 107.52 64.7034 107.305 64.358C107.091 64.0034 106.797 63.7373 106.423 63.56C106.059 63.3733 105.653 63.28 105.205 63.28C104.561 63.28 104.011 63.4854 103.553 63.896C103.105 64.3067 102.849 64.876 102.783 65.604H107.627Z" fill="#443D67"/>
<path d="M121.212 63.378H119.602V70H118.328V63.378H117.334V62.328H118.328V61.782C118.328 60.9234 118.547 60.298 118.986 59.906C119.434 59.5047 120.148 59.304 121.128 59.304V60.368C120.568 60.368 120.171 60.48 119.938 60.704C119.714 60.9187 119.602 61.278 119.602 61.782V62.328H121.212V63.378Z" fill="#443D67"/>
<path d="M126.043 70.126C125.324 70.126 124.671 69.9627 124.083 69.636C123.504 69.3094 123.047 68.8474 122.711 68.25C122.384 67.6434 122.221 66.9434 122.221 66.15C122.221 65.366 122.389 64.6754 122.725 64.078C123.07 63.4714 123.537 63.0094 124.125 62.692C124.713 62.3654 125.371 62.202 126.099 62.202C126.827 62.202 127.485 62.3654 128.073 62.692C128.661 63.0094 129.123 63.4667 129.459 64.064C129.804 64.6613 129.977 65.3567 129.977 66.15C129.977 66.9434 129.8 67.6434 129.445 68.25C129.1 68.8474 128.628 69.3094 128.031 69.636C127.434 69.9627 126.771 70.126 126.043 70.126ZM126.043 69.006C126.5 69.006 126.93 68.8987 127.331 68.684C127.732 68.4694 128.054 68.1474 128.297 67.718C128.549 67.2887 128.675 66.766 128.675 66.15C128.675 65.534 128.554 65.0114 128.311 64.582C128.068 64.1527 127.751 63.8354 127.359 63.63C126.967 63.4154 126.542 63.308 126.085 63.308C125.618 63.308 125.189 63.4154 124.797 63.63C124.414 63.8354 124.106 64.1527 123.873 64.582C123.64 65.0114 123.523 65.534 123.523 66.15C123.523 66.7754 123.635 67.3027 123.859 67.732C124.092 68.1614 124.4 68.4834 124.783 68.698C125.166 68.9034 125.586 69.006 126.043 69.006Z" fill="#443D67"/>
<path d="M132.926 63.574C133.15 63.1353 133.468 62.7947 133.878 62.552C134.298 62.3094 134.807 62.188 135.404 62.188V63.504H135.068C133.64 63.504 132.926 64.2787 132.926 65.828V70H131.652V62.328H132.926V63.574Z" fill="#443D67"/>
<path d="M147.215 62.328L142.595 73.612H141.279L142.791 69.916L139.697 62.328H141.111L143.519 68.544L145.899 62.328H147.215Z" fill="#443D67"/>
<path d="M151.842 70.126C151.123 70.126 150.47 69.9627 149.882 69.636C149.303 69.3094 148.846 68.8474 148.51 68.25C148.183 67.6434 148.02 66.9434 148.02 66.15C148.02 65.366 148.188 64.6754 148.524 64.078C148.869 63.4714 149.336 63.0094 149.924 62.692C150.512 62.3654 151.17 62.202 151.898 62.202C152.626 62.202 153.284 62.3654 153.872 62.692C154.46 63.0094 154.922 63.4667 155.258 64.064C155.603 64.6613 155.776 65.3567 155.776 66.15C155.776 66.9434 155.599 67.6434 155.244 68.25C154.899 68.8474 154.427 69.3094 153.83 69.636C153.233 69.9627 152.57 70.126 151.842 70.126ZM151.842 69.006C152.299 69.006 152.729 68.8987 153.13 68.684C153.531 68.4694 153.853 68.1474 154.096 67.718C154.348 67.2887 154.474 66.766 154.474 66.15C154.474 65.534 154.353 65.0114 154.11 64.582C153.867 64.1527 153.55 63.8354 153.158 63.63C152.766 63.4154 152.341 63.308 151.884 63.308C151.417 63.308 150.988 63.4154 150.596 63.63C150.213 63.8354 149.905 64.1527 149.672 64.582C149.439 65.0114 149.322 65.534 149.322 66.15C149.322 66.7754 149.434 67.3027 149.658 67.732C149.891 68.1614 150.199 68.4834 150.582 68.698C150.965 68.9034 151.385 69.006 151.842 69.006Z" fill="#443D67"/>
<path d="M164.255 62.328V70H162.981V68.866C162.738 69.258 162.398 69.566 161.959 69.79C161.53 70.0047 161.054 70.112 160.531 70.112C159.934 70.112 159.397 69.9907 158.921 69.748C158.445 69.496 158.067 69.1227 157.787 68.628C157.516 68.1334 157.381 67.5314 157.381 66.822V62.328H158.641V66.654C158.641 67.41 158.832 67.9934 159.215 68.404C159.598 68.8054 160.12 69.006 160.783 69.006C161.464 69.006 162.001 68.796 162.393 68.376C162.785 67.956 162.981 67.3447 162.981 66.542V62.328H164.255Z" fill="#443D67"/>
<path d="M167.68 63.574C167.904 63.1353 168.221 62.7947 168.632 62.552C169.052 62.3094 169.561 62.188 170.158 62.188V63.504H169.822C168.394 63.504 167.68 64.2787 167.68 65.828V70H166.406V62.328H167.68V63.574Z" fill="#443D67"/>
<path d="M184.587 62.188C185.185 62.188 185.717 62.314 186.183 62.566C186.65 62.8087 187.019 63.1774 187.289 63.672C187.56 64.1667 187.695 64.7687 187.695 65.478V70H186.435V65.66C186.435 64.8947 186.244 64.3114 185.861 63.91C185.488 63.4994 184.979 63.294 184.335 63.294C183.673 63.294 183.145 63.5087 182.753 63.938C182.361 64.358 182.165 64.9693 182.165 65.772V70H180.905V65.66C180.905 64.8947 180.714 64.3114 180.331 63.91C179.958 63.4994 179.449 63.294 178.805 63.294C178.143 63.294 177.615 63.5087 177.223 63.938C176.831 64.358 176.635 64.9693 176.635 65.772V70H175.361V62.328H176.635V63.434C176.887 63.0327 177.223 62.7247 177.643 62.51C178.073 62.2954 178.544 62.188 179.057 62.188C179.701 62.188 180.271 62.3327 180.765 62.622C181.26 62.9114 181.629 63.336 181.871 63.896C182.086 63.3547 182.441 62.9347 182.935 62.636C183.43 62.3374 183.981 62.188 184.587 62.188Z" fill="#443D67"/>
<path d="M193.131 70.126C192.412 70.126 191.759 69.9627 191.171 69.636C190.592 69.3094 190.135 68.8474 189.799 68.25C189.472 67.6434 189.309 66.9434 189.309 66.15C189.309 65.366 189.477 64.6754 189.813 64.078C190.158 63.4714 190.625 63.0094 191.213 62.692C191.801 62.3654 192.459 62.202 193.187 62.202C193.915 62.202 194.573 62.3654 195.161 62.692C195.749 63.0094 196.211 63.4667 196.547 64.064C196.892 64.6613 197.065 65.3567 197.065 66.15C197.065 66.9434 196.888 67.6434 196.533 68.25C196.188 68.8474 195.716 69.3094 195.119 69.636C194.522 69.9627 193.859 70.126 193.131 70.126ZM193.131 69.006C193.588 69.006 194.018 68.8987 194.419 68.684C194.82 68.4694 195.142 68.1474 195.385 67.718C195.637 67.2887 195.763 66.766 195.763 66.15C195.763 65.534 195.642 65.0114 195.399 64.582C195.156 64.1527 194.839 63.8354 194.447 63.63C194.055 63.4154 193.63 63.308 193.173 63.308C192.706 63.308 192.277 63.4154 191.885 63.63C191.502 63.8354 191.194 64.1527 190.961 64.582C190.728 65.0114 190.611 65.534 190.611 66.15C190.611 66.7754 190.723 67.3027 190.947 67.732C191.18 68.1614 191.488 68.4834 191.871 68.698C192.254 68.9034 192.674 69.006 193.131 69.006Z" fill="#443D67"/>
<path d="M202.086 70.126C201.367 70.126 200.714 69.9627 200.126 69.636C199.547 69.3094 199.09 68.8474 198.754 68.25C198.427 67.6434 198.264 66.9434 198.264 66.15C198.264 65.366 198.432 64.6754 198.768 64.078C199.113 63.4714 199.58 63.0094 200.168 62.692C200.756 62.3654 201.414 62.202 202.142 62.202C202.87 62.202 203.528 62.3654 204.116 62.692C204.704 63.0094 205.166 63.4667 205.502 64.064C205.847 64.6613 206.02 65.3567 206.02 66.15C206.02 66.9434 205.843 67.6434 205.488 68.25C205.143 68.8474 204.671 69.3094 204.074 69.636C203.477 69.9627 202.814 70.126 202.086 70.126ZM202.086 69.006C202.543 69.006 202.973 68.8987 203.374 68.684C203.775 68.4694 204.097 68.1474 204.34 67.718C204.592 67.2887 204.718 66.766 204.718 66.15C204.718 65.534 204.597 65.0114 204.354 64.582C204.111 64.1527 203.794 63.8354 203.402 63.63C203.01 63.4154 202.585 63.308 202.128 63.308C201.661 63.308 201.232 63.4154 200.84 63.63C200.457 63.8354 200.149 64.1527 199.916 64.582C199.683 65.0114 199.566 65.534 199.566 66.15C199.566 66.7754 199.678 67.3027 199.902 67.732C200.135 68.1614 200.443 68.4834 200.826 68.698C201.209 68.9034 201.629 69.006 202.086 69.006Z" fill="#443D67"/>
<path d="M207.219 66.136C207.219 65.352 207.378 64.666 207.695 64.078C208.013 63.4807 208.447 63.0187 208.997 62.692C209.557 62.3654 210.183 62.202 210.873 62.202C211.471 62.202 212.026 62.342 212.539 62.622C213.053 62.8927 213.445 63.252 213.715 63.7V59.64H215.003V70H213.715V68.558C213.463 69.0154 213.09 69.3934 212.595 69.692C212.101 69.9814 211.522 70.126 210.859 70.126C210.178 70.126 209.557 69.958 208.997 69.622C208.447 69.286 208.013 68.8147 207.695 68.208C207.378 67.6014 207.219 66.9107 207.219 66.136ZM213.715 66.15C213.715 65.5714 213.599 65.0674 213.365 64.638C213.132 64.2087 212.815 63.882 212.413 63.658C212.021 63.4247 211.587 63.308 211.111 63.308C210.635 63.308 210.201 63.42 209.809 63.644C209.417 63.868 209.105 64.1947 208.871 64.624C208.638 65.0533 208.521 65.5574 208.521 66.136C208.521 66.724 208.638 67.2374 208.871 67.676C209.105 68.1054 209.417 68.4367 209.809 68.67C210.201 68.894 210.635 69.006 211.111 69.006C211.587 69.006 212.021 68.894 212.413 68.67C212.815 68.4367 213.132 68.1054 213.365 67.676C213.599 67.2374 213.715 66.7287 213.715 66.15Z" fill="#443D67"/>
</svg>
