<svg width="85" height="85" viewBox="0 0 85 85" fill="none" xmlns="http://www.w3.org/2000/svg">
<circle cx="42.5" cy="42.5" r="42.5" fill="white"/>
<path d="M55.6698 33.8069L63.6449 42.2181L59.8442 46.0496M55.6698 33.8069L70 20.162L62.0249 12L47.6947 26.1758M55.6698 33.8069L47.6947 26.1758M47.6947 26.1758L10 63.4642C22.1001 69.1875 28.8144 69.746 40.6542 65.3956L51.5576 54.4036M45.7632 39.8505L29.6885 55.9875M51.5576 54.4036V72M51.5576 54.4036L59.8442 46.0496M59.8442 46.0496V59.7259" stroke="#C82A27" stroke-width="3" stroke-linecap="round" stroke-linejoin="round"/>
<circle cx="59.7195" cy="67.9501" r="1.5" fill="#C82A27" fill-opacity="0.5" stroke="#C82A27" stroke-width="0.738318"/>
<path d="M45.6542 65.3956C33.8144 69.746 27.1001 69.1875 15 63.4642L52.6947 26.1758L67.0249 12L75 20.162L60.6698 33.8069L68.6449 42.2181L64.8442 46.0496L56.5576 54.4036L45.6542 65.3956Z" fill="#C82A27" fill-opacity="0.5"/>
</svg>
